<svg width="8" height="12" viewBox="0 0 8 12" fill="none" xmlns="http://www.w3.org/2000/svg">
<g clip-path="url(#clip0)">
<path d="M3.77582 0C2.77441 0 1.81401 0.395088 1.10591 1.09835C0.397808 1.80161 0 2.75544 0 3.75C0 7.5 3.77582 12 3.77582 12C3.77582 12 7.55163 7.5 7.55163 3.75C7.55163 2.75544 7.15382 1.80161 6.44572 1.09835C5.73762 0.395088 4.77723 0 3.77582 0V0ZM3.77582 6C3.17497 6 2.59873 5.76295 2.17387 5.34099C1.74901 4.91903 1.51033 4.34674 1.51033 3.75C1.51033 3.15326 1.74901 2.58097 2.17387 2.15901C2.59873 1.73705 3.17497 1.5 3.77582 1.5C4.37666 1.5 4.9529 1.73705 5.37776 2.15901C5.80262 2.58097 6.04131 3.15326 6.04131 3.75C6.04131 4.34674 5.80262 4.91903 5.37776 5.34099C4.9529 5.76295 4.37666 6 3.77582 6Z" fill="#8E8E8E"/>
</g>
<defs>
<clipPath id="clip0">
<rect width="7.55163" height="12" fill="white"/>
</clipPath>
</defs>
</svg>
