<svg width="12" height="12" viewBox="0 0 12 12" fill="none" xmlns="http://www.w3.org/2000/svg">
<path d="M6.00015 6C7.89318 6 9.42742 4.65703 9.42742 3C9.42742 1.34297 7.89318 0 6.00015 0C4.10713 0 2.57289 1.34297 2.57289 3C2.57289 4.65703 4.10713 6 6.00015 6ZM8.39924 6.75H7.95209C7.35767 6.98906 6.69632 7.125 6.00015 7.125C5.30399 7.125 4.64531 6.98906 4.04822 6.75H3.60107C1.61433 6.75 0.00244141 8.16094 0.00244141 9.9V10.875C0.00244141 11.4961 0.578115 12 1.28767 12H10.7126C11.4222 12 11.9979 11.4961 11.9979 10.875V9.9C11.9979 8.16094 10.386 6.75 8.39924 6.75Z" fill="#1D1D1D"/>
</svg>
