<svg width="129" height="36" fill="none" xmlns="http://www.w3.org/2000/svg"><path d="M6.514 11.055v10.442H7.78c.843 0 1.441.165 1.794.495.365.32.547.74.547 1.265 0 .512-.182.934-.547 1.264-.353.32-.951.479-1.794.479H3.182c-.843 0-1.442-.16-1.795-.479-.364-.33-.547-.757-.547-1.281 0-.513.177-.929.53-1.248.353-.33.9-.495 1.64-.495V7.79c-.614-.057-1.082-.245-1.4-.564-.308-.32-.462-.718-.462-1.197 0-.524.177-.945.53-1.264.364-.33.968-.496 1.811-.496l3.845.017 4.768 10.544 4.683-10.56 3.88.017c.843 0 1.44.16 1.794.479.365.319.547.74.547 1.264 0 .479-.16.878-.479 1.197-.319.319-.78.507-1.384.564v13.706c.74 0 1.287.165 1.64.495.354.33.53.752.53 1.265 0 .512-.182.934-.546 1.264-.354.32-.952.479-1.795.479h-4.614c-.832 0-1.43-.16-1.795-.479-.353-.33-.53-.757-.53-1.281 0-.513.177-.929.53-1.248.365-.33.963-.495 1.795-.495h1.282V11.055l-4.017 9.023h-3.041l-4.068-9.023z" fill="#A80011"/><path stroke="#A80011" stroke-width="3" d="M1 32.5h22"/><path d="M45.308 17l-.017-7.123-3.502 5.865h-1.224l-3.502-5.729V17h-2.584V5.1h2.278l4.454 7.395L45.597 5.1h2.278l.017 11.9h-2.584zm10.47.136c-.963 0-1.83-.198-2.6-.595a4.561 4.561 0 01-1.786-1.683c-.43-.714-.646-1.524-.646-2.431s.215-1.717.646-2.431a4.441 4.441 0 011.785-1.666c.77-.408 1.638-.612 2.601-.612.964 0 1.825.204 2.584.612a4.44 4.44 0 011.785 1.666c.43.714.646 1.524.646 2.431s-.215 1.717-.646 2.431a4.56 4.56 0 01-1.785 1.683c-.76.397-1.62.595-2.584.595zm0-2.176c.68 0 1.236-.227 1.666-.68.442-.465.663-1.082.663-1.853 0-.77-.22-1.383-.663-1.836-.43-.465-.986-.697-1.666-.697-.68 0-1.24.232-1.683.697-.442.453-.663 1.065-.663 1.836 0 .77.221 1.388.663 1.853.442.453 1.003.68 1.683.68zm12.041 2.176c-.975 0-1.853-.198-2.635-.595a4.655 4.655 0 01-1.819-1.683c-.43-.714-.646-1.524-.646-2.431s.215-1.717.646-2.431a4.533 4.533 0 011.82-1.666c.781-.408 1.66-.612 2.634-.612.963 0 1.802.204 2.516.612a3.527 3.527 0 011.581 1.717l-2.057 1.105c-.476-.839-1.161-1.258-2.057-1.258-.691 0-1.264.227-1.717.68-.453.453-.68 1.071-.68 1.853s.227 1.4.68 1.853c.454.453 1.026.68 1.717.68.907 0 1.592-.42 2.057-1.258l2.057 1.122c-.328.725-.855 1.292-1.58 1.7-.715.408-1.553.612-2.517.612zm12.21-4.896c.544.17.963.43 1.258.782.305.351.459.77.459 1.258 0 .578-.199 1.088-.596 1.53-.396.43-.94.765-1.632 1.003-.69.238-1.473.357-2.346.357a10.12 10.12 0 01-2.108-.221 8.005 8.005 0 01-1.92-.663l.713-1.853c.964.465 2.03.697 3.197.697.623 0 1.11-.09 1.462-.272.362-.193.543-.459.543-.799a.721.721 0 00-.373-.663c-.25-.159-.613-.238-1.089-.238h-1.87v-1.649h1.632c.465 0 .822-.074 1.072-.221a.707.707 0 00.374-.646c0-.295-.16-.521-.477-.68-.306-.159-.748-.238-1.326-.238-.883 0-1.847.21-2.89.629l-.645-1.836c1.269-.555 2.504-.833 3.706-.833.827 0 1.564.102 2.21.306.657.204 1.172.504 1.547.901.373.385.56.839.56 1.36 0 .43-.13.822-.39 1.173-.261.34-.618.612-1.072.816zm8.049-4.522c1.416 0 2.504.34 3.264 1.02.759.669 1.139 1.683 1.139 3.043V17h-2.482v-1.139c-.5.85-1.428 1.275-2.788 1.275-.703 0-1.315-.119-1.836-.357-.51-.238-.901-.567-1.173-.986a2.566 2.566 0 01-.408-1.428c0-.85.317-1.519.952-2.006.646-.487 1.637-.731 2.975-.731h2.108c0-.578-.176-1.02-.527-1.326-.352-.317-.879-.476-1.581-.476-.488 0-.97.08-1.445.238a3.686 3.686 0 00-1.19.612l-.952-1.853c.498-.351 1.093-.623 1.785-.816a8.128 8.128 0 012.159-.289zm-.204 7.633a2.36 2.36 0 001.207-.306c.35-.215.6-.527.748-.935v-.935h-1.82c-1.087 0-1.631.357-1.631 1.071 0 .34.13.612.39.816.273.193.64.289 1.106.289zm7.76-7.497h2.635v5.44l4.454-5.44h2.431V17h-2.635v-5.44L98.082 17h-2.448V7.854zm4.59-.986c-1.994 0-2.997-.878-3.009-2.635h1.734c.012.397.12.708.323.935.216.215.527.323.935.323.408 0 .72-.108.935-.323.227-.227.34-.538.34-.935h1.768c-.011 1.757-1.02 2.635-3.026 2.635zM117.479 17v-5.474l-2.737 4.59h-1.122l-2.669-4.607V17h-2.397V7.854h2.771l2.924 5.287 3.111-5.287h2.482l.034 9.146h-2.397zM39.396 28.668c.584.12 1.028.356 1.332.708.304.344.456.796.456 1.356 0 .728-.26 1.288-.78 1.68-.512.392-1.268.588-2.268.588h-3.72v-8.4h3.492c.896 0 1.596.184 2.1.552.504.368.756.9.756 1.596 0 .472-.12.872-.36 1.2-.24.32-.576.56-1.008.72zm-4.104-.264h2.568c.648 0 1.144-.132 1.488-.396.352-.264.528-.648.528-1.152 0-.504-.176-.888-.528-1.152-.344-.264-.84-.396-1.488-.396h-2.568v3.096zm2.844 3.888c1.448 0 2.172-.54 2.172-1.62 0-1.056-.724-1.584-2.172-1.584h-2.844v3.204h2.844zm8.304.768a3.436 3.436 0 01-1.68-.408 2.976 2.976 0 01-1.152-1.14 3.333 3.333 0 01-.42-1.668c0-.616.14-1.168.42-1.656.28-.488.664-.868 1.152-1.14a3.436 3.436 0 011.68-.408c.544 0 1.028.108 1.452.324.432.208.772.516 1.02.924l-.636.432a1.945 1.945 0 00-.792-.696c-.32-.16-.668-.24-1.044-.24-.456 0-.868.104-1.236.312-.36.2-.644.488-.852.864-.2.376-.3.804-.3 1.284 0 .488.1.92.3 1.296.208.368.492.656.852.864.368.2.78.3 1.236.3.376 0 .724-.076 1.044-.228.32-.152.584-.384.792-.696l.636.432c-.248.408-.588.72-1.02.936a3.304 3.304 0 01-1.452.312zm10.137-2.952h-5.28c.047.656.3 1.188.756 1.596.456.4 1.032.6 1.728.6.392 0 .752-.068 1.08-.204.328-.144.611-.352.852-.624l.48.552c-.28.336-.633.592-1.056.768a3.507 3.507 0 01-1.38.264c-.648 0-1.224-.136-1.728-.408a3.038 3.038 0 01-1.165-1.152 3.267 3.267 0 01-.42-1.656c0-.616.133-1.168.396-1.656.272-.488.64-.868 1.104-1.14.472-.272 1-.408 1.584-.408a3.05 3.05 0 011.572.408c.465.272.828.652 1.093 1.14.264.48.396 1.032.396 1.656l-.012.264zm-3.048-2.736c-.609 0-1.12.196-1.537.588-.407.384-.64.888-.695 1.512h4.476c-.056-.624-.293-1.128-.709-1.512-.407-.392-.92-.588-1.535-.588zm10.01.072h-3.613V33h-.852v-6.312h4.465v.756zm7.6 4.812v2.268h-.804V33h-5.652v1.524h-.804v-2.268h.36c.424-.024.712-.336.864-.936.152-.6.256-1.44.312-2.52l.084-2.112h4.656v5.568h.984zm-4.944-3.408c-.04.896-.116 1.636-.228 2.22-.112.576-.312.972-.6 1.188h3.936v-4.812h-3.036l-.072 1.404zm9.377-2.208c.823 0 1.456.208 1.895.624.44.408.66 1.016.66 1.824V33h-.816v-.984a1.947 1.947 0 01-.852.768c-.368.184-.808.276-1.32.276-.703 0-1.263-.168-1.68-.504-.416-.336-.624-.78-.624-1.332 0-.536.193-.968.577-1.296.391-.328 1.011-.492 1.86-.492h2.003v-.384c0-.544-.151-.956-.456-1.236-.303-.288-.748-.432-1.332-.432-.4 0-.783.068-1.151.204a2.822 2.822 0 00-.948.54l-.385-.636c.32-.272.704-.48 1.153-.624.447-.152.92-.228 1.415-.228zm-.3 5.748c.48 0 .891-.108 1.235-.324.344-.224.6-.544.768-.96v-1.032h-1.98c-1.08 0-1.62.376-1.62 1.128 0 .368.14.66.42.876.28.208.672.312 1.177.312zm12.104.672a3.436 3.436 0 01-1.68-.408 2.976 2.976 0 01-1.152-1.14 3.333 3.333 0 01-.42-1.668c0-.616.14-1.168.42-1.656.28-.488.664-.868 1.152-1.14a3.436 3.436 0 011.68-.408c.544 0 1.028.108 1.452.324.432.208.772.516 1.02.924l-.636.432a1.945 1.945 0 00-.792-.696c-.32-.16-.668-.24-1.044-.24-.456 0-.868.104-1.236.312-.36.2-.644.488-.852.864-.2.376-.3.804-.3 1.284 0 .488.1.92.3 1.296.208.368.492.656.852.864.368.2.78.3 1.236.3.376 0 .724-.076 1.044-.228.32-.152.584-.384.792-.696l.636.432c-.248.408-.588.72-1.02.936a3.304 3.304 0 01-1.452.312zm12.483-3.324c.856.2 1.284.716 1.284 1.548 0 .552-.204.976-.612 1.272-.408.296-1.016.444-1.824.444h-2.868v-6.312h2.784c.72 0 1.284.14 1.692.42.408.28.612.68.612 1.2 0 .344-.096.64-.288.888-.184.24-.444.42-.78.54zm-3.192-.24h1.896c.488 0 .86-.092 1.116-.276.264-.184.396-.452.396-.804 0-.352-.132-.616-.396-.792-.256-.176-.628-.264-1.116-.264h-1.896v2.136zm2.004 2.832c.544 0 .952-.088 1.224-.264.272-.176.408-.452.408-.828 0-.376-.124-.652-.372-.828-.248-.184-.64-.276-1.176-.276h-2.088v2.196h2.004zm7.24-5.688c.824 0 1.456.208 1.896.624.44.408.66 1.016.66 1.824V33h-.816v-.984a1.947 1.947 0 01-.852.768c-.368.184-.808.276-1.32.276-.704 0-1.264-.168-1.68-.504-.416-.336-.624-.78-.624-1.332 0-.536.192-.968.576-1.296.392-.328 1.012-.492 1.86-.492h2.004v-.384c0-.544-.152-.956-.456-1.236-.304-.288-.748-.432-1.332-.432-.4 0-.784.068-1.152.204a2.822 2.822 0 00-.948.54l-.384-.636c.32-.272.704-.48 1.152-.624.448-.152.92-.228 1.416-.228zm-.3 5.748c.48 0 .892-.108 1.236-.324.344-.224.6-.544.768-.96v-1.032h-1.98c-1.08 0-1.62.376-1.62 1.128 0 .368.14.66.42.876.28.208.672.312 1.176.312zm12.78-5.7V33h-.78v-4.992l-2.556 4.224h-.384l-2.556-4.236V33h-.78v-6.312h.864l2.676 4.548 2.724-4.548h.792zm3.025 0h.852v5.016l4.212-5.016h.756V33h-.852v-5.016l-4.2 5.016h-.768v-6.312z" fill="#1D1D1D"/></svg>