<svg width="8" height="12" fill="none" xmlns="http://www.w3.org/2000/svg"><g clip-path="url(#clip0)"><path d="M3.776 0a3.789 3.789 0 00-2.67 1.098A3.737 3.737 0 000 3.75C0 7.5 3.776 12 3.776 12s3.776-4.5 3.776-8.25c0-.995-.398-1.948-1.106-2.652A3.789 3.789 0 003.776 0zm0 6a2.273 2.273 0 01-1.602-.659 2.242 2.242 0 010-3.182 2.273 2.273 0 013.204 0 2.242 2.242 0 010 3.182A2.273 2.273 0 013.776 6z" fill="#8E8E8E"/></g><defs><clipPath id="clip0"><path fill="#fff" d="M0 0h7.552v12H0z"/></clipPath></defs></svg>