<svg width="129" height="36" viewBox="0 0 129 36" fill="none" xmlns="http://www.w3.org/2000/svg">
<path d="M6.51416 11.0547V21.4966H7.77881C8.62191 21.4966 9.22005 21.6618 9.57324 21.9922C9.93783 22.3112 10.1201 22.7327 10.1201 23.2568C10.1201 23.7695 9.93783 24.1911 9.57324 24.5215C9.22005 24.8405 8.62191 25 7.77881 25H3.18164C2.33854 25 1.7404 24.8405 1.38721 24.5215C1.02262 24.1911 0.840332 23.7638 0.840332 23.2397C0.840332 22.7271 1.01693 22.3112 1.37012 21.9922C1.72331 21.6618 2.27018 21.4966 3.01074 21.4966V7.79053C2.39551 7.73356 1.92839 7.54557 1.60938 7.22656C1.30176 6.90755 1.14795 6.50879 1.14795 6.03027C1.14795 5.50618 1.32454 5.08464 1.67773 4.76562C2.04232 4.43522 2.64616 4.27002 3.48926 4.27002L7.33447 4.28711L12.1025 14.8315L16.7852 4.27002L20.6646 4.28711C21.5076 4.28711 22.1058 4.44661 22.459 4.76562C22.8236 5.08464 23.0059 5.50618 23.0059 6.03027C23.0059 6.50879 22.8464 6.90755 22.5273 7.22656C22.2083 7.54557 21.7469 7.73356 21.1431 7.79053V21.4966C21.8836 21.4966 22.4305 21.6618 22.7837 21.9922C23.1369 22.3226 23.3135 22.7441 23.3135 23.2568C23.3135 23.7695 23.1312 24.1911 22.7666 24.5215C22.4134 24.8405 21.8153 25 20.9722 25H16.3579C15.5262 25 14.9281 24.8405 14.5635 24.5215C14.2103 24.1911 14.0337 23.7638 14.0337 23.2397C14.0337 22.7271 14.2103 22.3112 14.5635 21.9922C14.9281 21.6618 15.5262 21.4966 16.3579 21.4966H17.6396V11.0547L13.6235 20.0781H10.5815L6.51416 11.0547Z" fill="#A80011"/>
<line x1="1" y1="32.5" x2="23" y2="32.5" stroke="#A80011" stroke-width="3"/>
<path d="M45.308 17L45.291 9.877L41.789 15.742H40.565L37.063 10.013V17H34.479V5.1H36.757L41.211 12.495L45.597 5.1H47.875L47.892 17H45.308ZM55.7781 17.136C54.8148 17.136 53.9478 16.9377 53.1771 16.541C52.4178 16.133 51.8228 15.572 51.3921 14.858C50.9615 14.144 50.7461 13.3337 50.7461 12.427C50.7461 11.5203 50.9615 10.71 51.3921 9.996C51.8228 9.282 52.4178 8.72667 53.1771 8.33C53.9478 7.922 54.8148 7.718 55.7781 7.718C56.7415 7.718 57.6028 7.922 58.3621 8.33C59.1215 8.72667 59.7165 9.282 60.1471 9.996C60.5778 10.71 60.7931 11.5203 60.7931 12.427C60.7931 13.3337 60.5778 14.144 60.1471 14.858C59.7165 15.572 59.1215 16.133 58.3621 16.541C57.6028 16.9377 56.7415 17.136 55.7781 17.136ZM55.7781 14.96C56.4581 14.96 57.0135 14.7333 57.4441 14.28C57.8861 13.8153 58.1071 13.1977 58.1071 12.427C58.1071 11.6563 57.8861 11.0443 57.4441 10.591C57.0135 10.1263 56.4581 9.894 55.7781 9.894C55.0981 9.894 54.5371 10.1263 54.0951 10.591C53.6531 11.0443 53.4321 11.6563 53.4321 12.427C53.4321 13.1977 53.6531 13.8153 54.0951 14.28C54.5371 14.7333 55.0981 14.96 55.7781 14.96ZM67.8192 17.136C66.8445 17.136 65.9662 16.9377 65.1842 16.541C64.4135 16.133 63.8072 15.572 63.3652 14.858C62.9345 14.144 62.7192 13.3337 62.7192 12.427C62.7192 11.5203 62.9345 10.71 63.3652 9.996C63.8072 9.282 64.4135 8.72667 65.1842 8.33C65.9662 7.922 66.8445 7.718 67.8192 7.718C68.7825 7.718 69.6212 7.922 70.3352 8.33C71.0605 8.72667 71.5875 9.299 71.9162 10.047L69.8592 11.152C69.3832 10.3133 68.6975 9.894 67.8022 9.894C67.1109 9.894 66.5385 10.1207 66.0852 10.574C65.6319 11.0273 65.4052 11.645 65.4052 12.427C65.4052 13.209 65.6319 13.8267 66.0852 14.28C66.5385 14.7333 67.1109 14.96 67.8022 14.96C68.7089 14.96 69.3945 14.5407 69.8592 13.702L71.9162 14.824C71.5875 15.5493 71.0605 16.116 70.3352 16.524C69.6212 16.932 68.7825 17.136 67.8192 17.136ZM80.0285 12.24C80.5725 12.41 80.9918 12.6707 81.2865 13.022C81.5925 13.3733 81.7455 13.7927 81.7455 14.28C81.7455 14.858 81.5472 15.368 81.1505 15.81C80.7538 16.2407 80.2098 16.575 79.5185 16.813C78.8272 17.051 78.0452 17.17 77.1725 17.17C76.4585 17.17 75.7558 17.0963 75.0645 16.949C74.3732 16.8017 73.7328 16.5807 73.1435 16.286L73.8575 14.433C74.8208 14.8977 75.8862 15.13 77.0535 15.13C77.6768 15.13 78.1642 15.0393 78.5155 14.858C78.8782 14.6653 79.0595 14.399 79.0595 14.059C79.0595 13.7643 78.9348 13.5433 78.6855 13.396C78.4362 13.2373 78.0735 13.158 77.5975 13.158H75.7275V11.509H77.3595C77.8242 11.509 78.1812 11.4353 78.4305 11.288C78.6798 11.1407 78.8045 10.9253 78.8045 10.642C78.8045 10.3473 78.6458 10.1207 78.3285 9.962C78.0225 9.80333 77.5805 9.724 77.0025 9.724C76.1185 9.724 75.1552 9.93367 74.1125 10.353L73.4665 8.517C74.7358 7.96167 75.9712 7.684 77.1725 7.684C77.9998 7.684 78.7365 7.786 79.3825 7.99C80.0398 8.194 80.5555 8.49433 80.9295 8.891C81.3035 9.27633 81.4905 9.72967 81.4905 10.251C81.4905 10.6817 81.3602 11.0727 81.0995 11.424C80.8388 11.764 80.4818 12.036 80.0285 12.24ZM88.0776 7.718C89.4943 7.718 90.5823 8.058 91.3416 8.738C92.1009 9.40667 92.4806 10.421 92.4806 11.781V17H89.9986V15.861C89.4999 16.711 88.5706 17.136 87.2106 17.136C86.5079 17.136 85.8959 17.017 85.3746 16.779C84.8646 16.541 84.4736 16.2123 84.2016 15.793C83.9296 15.3737 83.7936 14.8977 83.7936 14.365C83.7936 13.515 84.1109 12.8463 84.7456 12.359C85.3916 11.8717 86.3833 11.628 87.7206 11.628H89.8286C89.8286 11.05 89.6529 10.608 89.3016 10.302C88.9503 9.98467 88.4233 9.826 87.7206 9.826C87.2333 9.826 86.7516 9.90533 86.2756 10.064C85.8109 10.2113 85.4143 10.4153 85.0856 10.676L84.1336 8.823C84.6323 8.47167 85.2273 8.19967 85.9186 8.007C86.6213 7.81433 87.3409 7.718 88.0776 7.718ZM87.8736 15.351C88.3269 15.351 88.7293 15.249 89.0806 15.045C89.4319 14.8297 89.6813 14.518 89.8286 14.11V13.175H88.0096C86.9216 13.175 86.3776 13.532 86.3776 14.246C86.3776 14.586 86.5079 14.858 86.7686 15.062C87.0406 15.2547 87.4089 15.351 87.8736 15.351ZM95.6344 7.854H98.2694V13.294L102.723 7.854H105.154V17H102.519V11.56L98.0824 17H95.6344V7.854ZM100.224 6.868C98.2297 6.868 97.2267 5.98967 97.2154 4.233H98.9494C98.9607 4.62967 99.0684 4.94133 99.2724 5.168C99.4877 5.38333 99.7994 5.491 100.207 5.491C100.615 5.491 100.927 5.38333 101.142 5.168C101.369 4.94133 101.482 4.62967 101.482 4.233H103.25C103.239 5.98967 102.23 6.868 100.224 6.868ZM117.479 17V11.526L114.742 16.116H113.62L110.951 11.509V17H108.554V7.854H111.325L114.249 13.141L117.36 7.854H119.842L119.876 17H117.479Z" fill="#1D1D1D"/>
<path d="M39.396 28.668C39.98 28.788 40.424 29.024 40.728 29.376C41.032 29.72 41.184 30.172 41.184 30.732C41.184 31.46 40.924 32.02 40.404 32.412C39.892 32.804 39.136 33 38.136 33H34.416V24.6H37.908C38.804 24.6 39.504 24.784 40.008 25.152C40.512 25.52 40.764 26.052 40.764 26.748C40.764 27.22 40.644 27.62 40.404 27.948C40.164 28.268 39.828 28.508 39.396 28.668ZM35.292 28.404H37.86C38.508 28.404 39.004 28.272 39.348 28.008C39.7 27.744 39.876 27.36 39.876 26.856C39.876 26.352 39.7 25.968 39.348 25.704C39.004 25.44 38.508 25.308 37.86 25.308H35.292V28.404ZM38.136 32.292C39.584 32.292 40.308 31.752 40.308 30.672C40.308 29.616 39.584 29.088 38.136 29.088H35.292V32.292H38.136ZM46.4403 33.06C45.8163 33.06 45.2563 32.924 44.7603 32.652C44.2723 32.38 43.8883 32 43.6083 31.512C43.3283 31.016 43.1883 30.46 43.1883 29.844C43.1883 29.228 43.3283 28.676 43.6083 28.188C43.8883 27.7 44.2723 27.32 44.7603 27.048C45.2563 26.776 45.8163 26.64 46.4403 26.64C46.9843 26.64 47.4683 26.748 47.8923 26.964C48.3243 27.172 48.6643 27.48 48.9123 27.888L48.2763 28.32C48.0683 28.008 47.8043 27.776 47.4843 27.624C47.1643 27.464 46.8163 27.384 46.4403 27.384C45.9843 27.384 45.5723 27.488 45.2043 27.696C44.8443 27.896 44.5603 28.184 44.3523 28.56C44.1523 28.936 44.0523 29.364 44.0523 29.844C44.0523 30.332 44.1523 30.764 44.3523 31.14C44.5603 31.508 44.8443 31.796 45.2043 32.004C45.5723 32.204 45.9843 32.304 46.4403 32.304C46.8163 32.304 47.1643 32.228 47.4843 32.076C47.8043 31.924 48.0683 31.692 48.2763 31.38L48.9123 31.812C48.6643 32.22 48.3243 32.532 47.8923 32.748C47.4603 32.956 46.9763 33.06 46.4403 33.06ZM56.5765 30.108H51.2965C51.3445 30.764 51.5965 31.296 52.0525 31.704C52.5085 32.104 53.0845 32.304 53.7805 32.304C54.1725 32.304 54.5325 32.236 54.8605 32.1C55.1885 31.956 55.4725 31.748 55.7125 31.476L56.1925 32.028C55.9125 32.364 55.5605 32.62 55.1365 32.796C54.7205 32.972 54.2605 33.06 53.7565 33.06C53.1085 33.06 52.5325 32.924 52.0285 32.652C51.5325 32.372 51.1445 31.988 50.8645 31.5C50.5845 31.012 50.4445 30.46 50.4445 29.844C50.4445 29.228 50.5765 28.676 50.8405 28.188C51.1125 27.7 51.4805 27.32 51.9445 27.048C52.4165 26.776 52.9445 26.64 53.5285 26.64C54.1125 26.64 54.6365 26.776 55.1005 27.048C55.5645 27.32 55.9285 27.7 56.1925 28.188C56.4565 28.668 56.5885 29.22 56.5885 29.844L56.5765 30.108ZM53.5285 27.372C52.9205 27.372 52.4085 27.568 51.9925 27.96C51.5845 28.344 51.3525 28.848 51.2965 29.472H55.7725C55.7165 28.848 55.4805 28.344 55.0645 27.96C54.6565 27.568 54.1445 27.372 53.5285 27.372ZM63.5385 27.444H59.9265V33H59.0745V26.688H63.5385V27.444ZM71.1391 32.256V34.524H70.3351V33H64.6831V34.524H63.8791V32.256H64.2391C64.6631 32.232 64.9511 31.92 65.1031 31.32C65.2551 30.72 65.3591 29.88 65.4151 28.8L65.4991 26.688H70.1551V32.256H71.1391ZM66.1951 28.848C66.1551 29.744 66.0791 30.484 65.9671 31.068C65.8551 31.644 65.6551 32.04 65.3671 32.256H69.3031V27.444H66.2671L66.1951 28.848ZM75.5715 26.64C76.3955 26.64 77.0275 26.848 77.4675 27.264C77.9075 27.672 78.1275 28.28 78.1275 29.088V33H77.3115V32.016C77.1195 32.344 76.8355 32.6 76.4595 32.784C76.0915 32.968 75.6515 33.06 75.1395 33.06C74.4355 33.06 73.8755 32.892 73.4595 32.556C73.0435 32.22 72.8355 31.776 72.8355 31.224C72.8355 30.688 73.0275 30.256 73.4115 29.928C73.8035 29.6 74.4235 29.436 75.2715 29.436H77.2755V29.052C77.2755 28.508 77.1235 28.096 76.8195 27.816C76.5155 27.528 76.0715 27.384 75.4875 27.384C75.0875 27.384 74.7035 27.452 74.3355 27.588C73.9675 27.716 73.6515 27.896 73.3875 28.128L73.0035 27.492C73.3235 27.22 73.7075 27.012 74.1555 26.868C74.6035 26.716 75.0755 26.64 75.5715 26.64ZM75.2715 32.388C75.7515 32.388 76.1635 32.28 76.5075 32.064C76.8515 31.84 77.1075 31.52 77.2755 31.104V30.072H75.2955C74.2155 30.072 73.6755 30.448 73.6755 31.2C73.6755 31.568 73.8155 31.86 74.0955 32.076C74.3755 32.284 74.7675 32.388 75.2715 32.388ZM87.3762 33.06C86.7522 33.06 86.1922 32.924 85.6962 32.652C85.2082 32.38 84.8242 32 84.5442 31.512C84.2642 31.016 84.1242 30.46 84.1242 29.844C84.1242 29.228 84.2642 28.676 84.5442 28.188C84.8242 27.7 85.2082 27.32 85.6962 27.048C86.1922 26.776 86.7522 26.64 87.3762 26.64C87.9202 26.64 88.4042 26.748 88.8282 26.964C89.2602 27.172 89.6002 27.48 89.8482 27.888L89.2122 28.32C89.0042 28.008 88.7402 27.776 88.4202 27.624C88.1002 27.464 87.7522 27.384 87.3762 27.384C86.9202 27.384 86.5082 27.488 86.1402 27.696C85.7802 27.896 85.4962 28.184 85.2882 28.56C85.0882 28.936 84.9882 29.364 84.9882 29.844C84.9882 30.332 85.0882 30.764 85.2882 31.14C85.4962 31.508 85.7802 31.796 86.1402 32.004C86.5082 32.204 86.9202 32.304 87.3762 32.304C87.7522 32.304 88.1002 32.228 88.4202 32.076C88.7402 31.924 89.0042 31.692 89.2122 31.38L89.8482 31.812C89.6002 32.22 89.2602 32.532 88.8282 32.748C88.3962 32.956 87.9122 33.06 87.3762 33.06ZM99.8586 29.736C100.715 29.936 101.143 30.452 101.143 31.284C101.143 31.836 100.939 32.26 100.531 32.556C100.123 32.852 99.5146 33 98.7066 33H95.8386V26.688H98.6226C99.3426 26.688 99.9066 26.828 100.315 27.108C100.723 27.388 100.927 27.788 100.927 28.308C100.927 28.652 100.831 28.948 100.639 29.196C100.455 29.436 100.195 29.616 99.8586 29.736ZM96.6666 29.496H98.5626C99.0506 29.496 99.4226 29.404 99.6786 29.22C99.9426 29.036 100.075 28.768 100.075 28.416C100.075 28.064 99.9426 27.8 99.6786 27.624C99.4226 27.448 99.0506 27.36 98.5626 27.36H96.6666V29.496ZM98.6706 32.328C99.2146 32.328 99.6226 32.24 99.8946 32.064C100.167 31.888 100.303 31.612 100.303 31.236C100.303 30.86 100.179 30.584 99.9306 30.408C99.6826 30.224 99.2906 30.132 98.7546 30.132H96.6666V32.328H98.6706ZM105.911 26.64C106.735 26.64 107.367 26.848 107.807 27.264C108.247 27.672 108.467 28.28 108.467 29.088V33H107.651V32.016C107.459 32.344 107.175 32.6 106.799 32.784C106.431 32.968 105.991 33.06 105.479 33.06C104.775 33.06 104.215 32.892 103.799 32.556C103.383 32.22 103.175 31.776 103.175 31.224C103.175 30.688 103.367 30.256 103.751 29.928C104.143 29.6 104.763 29.436 105.611 29.436H107.615V29.052C107.615 28.508 107.463 28.096 107.159 27.816C106.855 27.528 106.411 27.384 105.827 27.384C105.427 27.384 105.043 27.452 104.675 27.588C104.307 27.716 103.991 27.896 103.727 28.128L103.343 27.492C103.663 27.22 104.047 27.012 104.495 26.868C104.943 26.716 105.415 26.64 105.911 26.64ZM105.611 32.388C106.091 32.388 106.503 32.28 106.847 32.064C107.191 31.84 107.447 31.52 107.615 31.104V30.072H105.635C104.555 30.072 104.015 30.448 104.015 31.2C104.015 31.568 104.155 31.86 104.435 32.076C104.715 32.284 105.107 32.388 105.611 32.388ZM118.391 26.688V33H117.611V28.008L115.055 32.232H114.671L112.115 27.996V33H111.335V26.688H112.199L114.875 31.236L117.599 26.688H118.391ZM121.416 26.688H122.268V31.704L126.48 26.688H127.236V33H126.384V27.984L122.184 33H121.416V26.688Z" fill="#1D1D1D"/>
</svg>
